<svg xmlns="http://www.w3.org/2000/svg" viewBox="0 0 512 512"><defs><style>.cls-1{fill:#f55b4b;}.cls-2{fill:#32314b;}.cls-3{fill:#27273d;}.cls-4{fill:#3e436d;}.cls-5{fill:#fff;}.cls-6{fill:#ddd;}</style></defs><title>Cinema</title><g id="BULINE"><circle class="cls-1" cx="256" cy="256" r="256"/></g><g id="Icons"><path class="cls-2" d="M69.17,191.1h375a0,0,0,0,1,0,0V407.25a17,17,0,0,1-17,17h-341a17,17,0,0,1-17-17V191.1A0,0,0,0,1,69.17,191.1Z"/><path class="cls-3" d="M444.17,191.1v44H126.41A27.91,27.91,0,0,0,98.5,263V424.27H86.18a17,17,0,0,1-17-17V191.1Z"/><circle class="cls-4" cx="421.91" cy="349.91" r="10.4"/><circle class="cls-4" cx="421.91" cy="328.25" r="7.37"/><rect class="cls-4" x="69.17" y="165.06" width="375" height="52.5" rx="4.85"/><path class="cls-2" d="M444.17,207.06v5.65a4.85,4.85,0,0,1-4.85,4.85H74a4.85,4.85,0,0,1-4.86-4.85v-42.8A4.85,4.85,0,0,1,74,165.06h6.14v37.15A4.85,4.85,0,0,0,85,207.06Z"/><polygon class="cls-5" points="145.06 216.56 107.99 216.56 135.79 165.06 172.86 165.06 145.06 216.56"/><polygon class="cls-5" points="222.56 217.56 185.49 217.56 213.29 165.06 250.36 165.06 222.56 217.56"/><polygon class="cls-5" points="300.06 217.56 262.99 217.56 290.79 165.06 327.86 165.06 300.06 217.56"/><polygon class="cls-5" points="377.56 217.56 340.49 217.56 368.29 165.06 405.36 165.06 377.56 217.56"/><polygon class="cls-6" points="228.11 207.06 222.55 217.56 185.49 217.56 191.05 207.06 228.11 207.06"/><polygon class="cls-6" points="305.61 207.06 300.05 217.56 262.99 217.56 268.55 207.06 305.61 207.06"/><polygon class="cls-6" points="383.11 207.06 377.55 217.56 340.49 217.56 346.05 207.06 383.11 207.06"/><rect class="cls-4" x="69.17" y="67.64" width="375" height="52.5" rx="4.85" transform="translate(-14.75 61.88) rotate(-13.37)"/><path class="cls-2" d="M442.74,65.87l1.3,5.5a4.85,4.85,0,0,1-3.59,5.84L85.05,161.65a4.85,4.85,0,0,1-5.85-3.6l-9.89-41.64a4.85,4.85,0,0,1,3.6-5.84l6-1.42,8.58,36.15a4.86,4.86,0,0,0,5.85,3.59Z"/><polygon class="cls-5" points="154.15 145.23 118.08 153.8 133 96.3 169.06 87.73 154.15 145.23"/><polygon class="cls-5" points="229.55 127.32 193.49 135.89 208.4 78.38 244.46 69.81 229.55 127.32"/><polygon class="cls-5" points="304.95 109.4 268.89 117.97 283.8 60.47 319.86 51.9 304.95 109.4"/><polygon class="cls-5" points="380.35 91.49 344.29 100.06 359.2 42.55 395.26 33.98 380.35 91.49"/><polygon class="cls-6" points="157.13 133.73 154.15 145.23 118.09 153.8 121.07 142.3 157.13 133.73"/><polygon class="cls-6" points="232.53 115.82 229.55 127.32 193.49 135.88 196.47 124.38 232.53 115.82"/><polygon class="cls-6" points="307.93 97.9 304.95 109.4 268.89 117.97 271.87 106.47 307.93 97.9"/><polygon class="cls-6" points="383.33 79.99 380.35 91.49 344.29 100.06 347.27 88.55 383.33 79.99"/><path class="cls-3" d="M166.87,217.56H89.55A9.56,9.56,0,0,1,80,208V129.45A11.48,11.48,0,0,1,91.46,118h33.76a11.48,11.48,0,0,1,9.63,5.22l46.43,71.33A16,16,0,0,1,166.87,217.56Z"/><circle class="cls-5" cx="97.99" cy="198.43" r="7.33"/><circle class="cls-5" cx="97.99" cy="136.43" r="7.33"/><circle class="cls-5" cx="161.73" cy="198.43" r="7.33"/><path class="cls-5" d="M416.74,316.43a5.17,5.17,0,1,0,0-10.33H345.66V255.44h71.08a5.17,5.17,0,1,0,0-10.33H96.41a5.17,5.17,0,1,0,0,10.33h71.28V306.1H96.41a5.17,5.17,0,1,0,0,10.33h155v51.5h-155a5.17,5.17,0,1,0,0,10.33h155v33.42a5.09,5.09,0,0,0,5.09,5.09h.16a5.08,5.08,0,0,0,5.08-5.09V378.26h155a5.17,5.17,0,1,0,0-10.33h-155v-51.5ZM335.32,306.1H261.74V255.44h73.58ZM178,306.1V255.44h73.38V306.1Z"/></g></svg>